# xmcd
#
# Track frame offsets: 
#        150
#        15919
#        48055
#        68489
#        87938
#        108000
#        126306
#        143954
#        158585
#        177029
#        197693
#        212916
#        228255
#        258134
#        278996
#
# Disc length: 3930 seconds
#
# Revision: 0
# Processed by: cddbd v1.5.1PL0 Copyright (c) Steve Scherf et al.
# Submitted via: ExactAudioCopy v0.95a5
#
DISCID=bb0f580f
DTITLE=Various Artist - Å·ÃÀ½ð³ªÆ¬
DYEAR=2002
DGENRE=Pop
TTITLE0=Big Big World
TTITLE1=Hotel California
TTITLE2=Right Here Waiting
TTITLE3=Casablanca
TTITLE4=Sailing
TTITLE5=Rivers Of Babylon
TTITLE6=Yesterday Once More
TTITLE7=Rhythm Of The Rain
TTITLE8=All Out Love
TTITLE9=Colors Of The Wind
TTITLE10=Becanse I Love You
TTITLE11=Lambada
TTITLE12=Careless Whisper
TTITLE13=The Cup Of Life
TTITLE14=Baby One More Time
EXTD=
EXTT0=
EXTT1=
EXTT2=
EXTT3=
EXTT4=
EXTT5=
EXTT6=
EXTT7=
EXTT8=
EXTT9=
EXTT10=
EXTT11=
EXTT12=
EXTT13=
EXTT14=
PLAYORDER=
